<svg xmlns="http://www.w3.org/2000/svg" width="16" height="16" viewBox="0 0 16 16">
    <path fill="#000" fill-rule="nonzero" d="M14.878 9.861l-1.313-1.183-5.907-5.325c-1.089-.974-2.846-.97-3.93.007-1.085.978-1.089 2.562-.008 3.543l5.907 5.326a.668.668 0 0 0 .875 0 .52.52 0 0 0 0-.789L4.595 6.114a1.3 1.3 0 0 1 0-1.972c.604-.544 1.584-.544 2.188 0l5.908 5.325 1.313 1.183c1.088.98 1.087 2.57 0 3.55-1.089.981-2.852.98-3.94 0l-1.093-.986-6.126-5.522-.438-.395C.877 5.875.897 3.61 2.451 2.21 4.005.81 6.518.791 8.095 2.17l6.564 5.917c.156.141.384.196.597.145a.591.591 0 0 0 .438-.395.521.521 0 0 0-.16-.539L8.97 1.381C6.915-.463 3.59-.459 1.54 1.39-.51 3.237-.514 6.234 1.532 8.086l6.563 5.917 1.096.986c1.58 1.368 4.083 1.345 5.631-.051 1.549-1.397 1.573-3.653.056-5.077z"/>
</svg>
