<svg xmlns="http://www.w3.org/2000/svg" width="18" height="18" viewBox="0 0 18 18">
    <g fill="#FCC419" fill-rule="evenodd">
        <path fill-rule="nonzero" d="M9 18A9 9 0 1 1 9 0a9 9 0 0 1 0 18zm0-1.24A7.76 7.76 0 1 0 9 1.24a7.76 7.76 0 0 0 0 15.52z"/>
        <path d="M8.598 4.296c-.738 0-1.458.189-2.162.565L6 3.665A6.082 6.082 0 0 1 8.799 3c.637 0 1.16.086 1.567.258.408.171.735.39.98.656.246.266.417.562.512.89.095.326.142.64.142.938 0 .377-.073.712-.218 1.006a4.171 4.171 0 0 1-.536.823 7.228 7.228 0 0 1-.704.73 7.788 7.788 0 0 0-.704.724 3.96 3.96 0 0 0-.536.814 2.2 2.2 0 0 0-.218.99v.182c0 .067.005.128.017.183H7.793a3.525 3.525 0 0 1-.067-.698c0-.355.065-.676.193-.964.128-.288.293-.557.494-.806.202-.25.414-.482.637-.698.224-.216.436-.435.637-.657.201-.221.366-.454.495-.698.128-.244.192-.51.192-.798 0-.465-.15-.845-.452-1.138-.302-.294-.743-.44-1.324-.44zm1.056 9.59c0 .3-.1.56-.302.782-.201.221-.475.332-.821.332-.347 0-.62-.11-.822-.332a1.125 1.125 0 0 1-.301-.782c0-.299.1-.56.301-.78.202-.222.475-.333.822-.333.346 0 .62.11.821.332.201.222.302.482.302.781z"/>
    </g>
</svg>
